<?xml  version="1.0" encoding="UTF-8"?>
<!DOCTYPE svg PUBLIC "-//W3C//DTD SVG 1.0//EN" "http://www.w3.org/TR/2001/REC-SVG-20010904/DTD/svg10.dtd" >
<svg xmlns="http://www.w3.org/2000/svg" >
<metadata>
<version>1.0</version>
<id><![CDATA[Proxima N W01SC X Cd Smbd It]]></id>
<vendor>Monotype Imaging Inc.</vendor>
<credits>
<name>Fonts.com WebFonts</name>
<URL>http://webfonts.fonts.com</URL>
<role>Home of the Web fonts</role>
</credits>
<license>
<URL>http://webfonts.fonts.com/Legal</URL>
</license>
<copyright><![CDATA[Copyright (c) Mark Simonson, 2005. All rights reserved.]]></copyright>
<trademark><![CDATA[Proxima Nova is a trademark of Mark Simonson.]]></trademark>
<licensee>
<name></name>
</licensee>
</metadata>
<defs >
<font horiz-adv-x="368" id="eb3c434b-63d8-4239-ac77-4af5eec74b90">
<font-face font-family="" panose-1="2 0 5 6 3 0 0 2 0 4" ascent="769" descent="-231" units-per-em="1000" alphabetic="0">
</font-face>
<missing-glyph horiz-adv-x="0" />

<glyph unicode="&#xA;" />
<glyph unicode="&#xD;" horiz-adv-x="0" />
<glyph unicode=" " horiz-adv-x="165" />
<glyph unicode="!" horiz-adv-x="191" d="M119 180H45L110 550H216L119 180ZM48 -11Q23 -11 7 6T-10 48Q-10 77 10 97T60 118Q85 118 101 101T118 59Q118 30 98 10T48 -11Z"  />
<glyph unicode="&quot;" horiz-adv-x="366" d="M115 399Q119 456 123 502Q124 521 125 540T128 575T130 601T131 613Q133 641 150 659T194 677Q214 677 228 663T242 628Q242 621 240 614T236 602Q235 600 232 591T222 567T209 534T195 497Q178 453 158 399H115ZM275 399Q279 456 283 502Q284 521 285 540T288 575T290 601T291 613Q292 641 309 659T353 677Q373 677 387 663T401 628Q401 621 399 614T395 602Q393 598 381 567T355 497Q338 453 318 399H275Z"  />
<glyph unicode="#" horiz-adv-x="381" d="M375 342H322L263 211H316L290 156H237L168 0H101L173 156H112L42 0H-25L46 156H-4L21 211H72L131 342H80L104 397H156L225 550H292L222 397H282L352 550H417L348 397H398L375 342ZM197 342L138 211H198L257 342H197Z"  />
<glyph unicode="$" horiz-adv-x="335" d="M81 -8Q49 -2 23 13T-23 54L33 124Q66 74 121 74Q151 74 170 99T190 159Q190 189 171 211T129 258T87 313T68 389Q68 422 78 451T107 502T151 540T206 560L222 628H292L275 557Q327 546 362 508L308 437Q279 476 234 476Q208 476 190 454T171 400Q171 372 190 351T232 304T275 246T294 161Q294 132 284 104T254 52T209 12T150 -10L136 -74H66L81 -8Z"  />
<glyph unicode="%" horiz-adv-x="471" d="M274 456Q274 426 265 396T239 342T198 303T145 288Q101 288 77 315T53 393Q53 423 62 453T89 507T129 546T182 562Q227 562 250 534T274 456ZM81 0H35L404 550H450L81 0ZM215 457Q215 510 180 510Q166 510 154 500T132 473T118 435T113 393Q113 340 148 340Q162 340 174 350T196 377T210 415T215 457ZM432 158Q432 128 423 98T396 44T356 4T303 -11Q258 -11 235 17T211 94Q211 124 220 154T247 209T287 248T340 264Q385 264 408 236T432 158ZM372 159Q372 212 338 212Q323 212 311 202T290 175T276 137T271 94Q271 41 305 41Q320 41 332 51T353 78T367 116T372 159Z"  />
<glyph unicode="&amp;" horiz-adv-x="369" d="M223 0Q219 8 216 15T210 30Q186 10 161 0T110 -11Q58 -11 27 20T-5 104Q-5 144 5 174T33 229T72 273T118 309Q111 347 111 383Q111 420 122 452T151 509T193 548T243 562Q283 562 309 536T335 466Q335 432 324 406T294 359T252 320T204 285Q207 273 211 260T220 233Q226 215 231 200T242 169Q257 195 270 222T295 276L357 242Q338 200 317 163T271 93Q279 72 289 50T312 0H223ZM127 56Q141 56 156 65T186 91Q178 113 171 133T157 174Q151 190 147 204T137 233Q113 210 98 181T83 113Q83 91 94 74T127 56ZM188 383Q188 376 188 370T189 357Q219 379 239 404T259 464Q259 479 254 489T238 499Q228 499 219 489T203 463T192 426T188 383Z"  />
<glyph unicode="&apos;" horiz-adv-x="208" d="M115 399Q119 456 123 502Q124 521 125 540T128 575T130 601T131 613Q133 641 150 659T194 677Q214 677 228 663T242 628Q242 621 240 614T236 602Q235 600 232 591T222 567T209 534T195 497Q178 453 158 399H115Z"  />
<glyph unicode="(" horiz-adv-x="237" d="M53 -199Q38 -150 30 -93T21 25Q21 216 82 380T248 685L308 649Q267 578 232 497T172 328T132 151T117 -26Q117 -37 117 -55T119 -94T121 -137T125 -176L53 -199Z"  />
<glyph unicode=")" horiz-adv-x="237" d="M183 685Q198 636 206 579T215 461Q215 270 154 106T-12 -199L-72 -163Q-31 -92 4 -11T64 158T104 335T119 512Q119 522 119 540T117 580T115 623T111 662L183 685Z"  />
<glyph unicode="*" horiz-adv-x="313" d="M160 381L191 497L82 447L67 494L178 534L90 595L125 636L206 566L226 677H278L247 561L355 611L370 564L260 524L348 463L312 422L231 492L212 381H160Z"  />
<glyph unicode="+" horiz-adv-x="381" d="M238 306L204 157H137L170 306H43L56 368H184L215 511H283L252 368H379L365 306H238Z"  />
<glyph unicode="&#x2c;" horiz-adv-x="241" d="M145 52Q145 26 135 1T108 -48T67 -91T18 -124L-18 -86Q9 -73 35 -51T71 -2Q70 -3 67 -3T62 -3Q42 -3 28 11T13 49Q13 78 34 98T83 118Q108 118 126 101T145 52Z"  />
<glyph unicode="-" horiz-adv-x="239" d="M20 201L38 283H216L199 201H20Z"  />
<glyph unicode="." horiz-adv-x="239" d="M71 -11Q46 -11 30 6T13 48Q13 77 33 97T83 118Q108 118 125 101T142 59Q142 30 121 10T71 -11Z"  />
<glyph unicode="/" horiz-adv-x="216" d="M-59 -20L244 687H315L11 -20H-59Z"  />
<glyph unicode="0" horiz-adv-x="436" d="M421 376Q421 346 415 306T396 223T364 137T317 62T256 9T180 -12Q112 -12 70 34T27 174Q27 204 33 244T52 327T84 413T131 488T192 541T268 562Q336 562 378 516T421 376ZM316 381Q316 469 261 469Q238 469 220 451T187 403T162 339T146 270T136 210T133 169Q133 81 187 81Q210 81 228 99T261 147T286 211T303 280T313 340T316 381Z"  />
<glyph unicode="1" horiz-adv-x="324" d="M109 0L200 414L83 313L36 377L243 550H334L213 0H109Z"  />
<glyph unicode="2" horiz-adv-x="409" d="M-8 0L11 88Q162 197 229 273T297 405Q297 437 280 453T234 470Q173 470 130 400L71 461Q107 510 150 536T246 562Q320 562 364 526T408 427Q408 353 348 272T156 92H329L309 0H-8Z"  />
<glyph unicode="3" horiz-adv-x="418" d="M148 -129Q117 -129 88 -121T34 -96T-8 -54T-35 5L51 56Q62 10 87 -13T148 -36Q172 -36 190 -23T220 11T239 57T245 107Q245 145 224 161T174 178Q163 178 155 178T140 176L161 271Q164 271 170 271T184 270T199 270T210 270Q234 270 252 281T281 311T299 353T305 400Q305 435 286 451T233 467Q205 467 179 450T135 405L77 466Q107 505 151 532T250 560Q285 560 315 551T366 524T400 480T413 419Q413 384 402 352T371 292T325 247T269 222Q291 214 306 201T330 171T344 135T348 96Q348 52 333 12T291 -60T228 -110T148 -129Z"  />
<glyph unicode="4" horiz-adv-x="403" d="M293 45L257 -117H153L188 45H-30L-9 139L281 550H404L313 137H364L344 45H293ZM273 425L77 137H208L273 425Z"  />
<glyph unicode="5" horiz-adv-x="423" d="M148 -129Q75 -129 33 -93T-27 4L58 54Q67 10 90 -13T148 -36Q170 -36 190 -20T225 21T248 80T257 146Q257 179 242 199T196 219Q170 219 150 206T109 169L37 198L116 550H427L407 458H200L156 259Q176 283 198 294T251 305Q303 305 334 267T366 159Q366 104 350 53T306 -39T237 -104T148 -129Z"  />
<glyph unicode="6" horiz-adv-x="421" d="M184 -12Q145 -12 116 2T69 41T41 103T32 182Q32 218 39 268T60 374T96 483T150 580T222 650T314 677Q362 677 399 652T452 581L380 515Q375 547 357 565T308 584Q281 584 258 564T217 511T185 439T161 361Q159 353 159 349T156 337Q178 373 209 397T277 422Q327 422 360 386T393 280Q393 232 379 181T339 86T273 16T184 -12ZM188 81Q212 81 230 101T261 149T279 209T285 264Q285 293 272 314T230 336Q201 336 179 310T140 250Q137 234 135 212T132 170Q132 128 145 105T188 81Z"  />
<glyph unicode="7" horiz-adv-x="364" d="M-8 -117L274 458H66L86 550H412L396 478L107 -117H-8Z"  />
<glyph unicode="8" horiz-adv-x="419" d="M179 -12Q99 -12 54 21T8 131Q8 163 17 195T46 257T95 311T164 352Q135 370 115 406T94 485Q94 524 109 558T149 619T209 661T282 677Q312 677 340 670T392 646T429 602T443 536Q443 497 431 465T399 407T352 364T298 337Q335 313 354 274T373 193Q373 149 359 112T319 47T257 4T179 -12ZM239 378Q255 384 272 395T303 423T326 464T336 520Q336 550 321 567T278 584Q260 584 245 575T219 549T202 511T196 465Q196 436 210 413T239 378ZM178 81Q196 81 212 91T241 118T262 160T270 211Q270 232 265 248T253 277T237 296T223 307Q204 301 185 288T151 254T127 209T117 152Q117 115 134 98T178 81Z"  />
<glyph unicode="9" horiz-adv-x="421" d="M250 561Q289 561 318 547T365 508T393 446T402 367Q402 331 395 281T374 175T337 66T283 -31T211 -101T120 -128Q72 -128 35 -103T-19 -32L53 34Q58 2 77 -16T125 -35Q153 -35 175 -15T216 38T248 110T272 188Q274 196 275 200T278 212Q256 176 225 152T156 127Q107 127 74 163T41 269Q41 317 55 368T95 463T161 533T250 561ZM246 468Q222 468 204 448T173 400T155 340T149 285Q149 256 161 235T203 213Q233 213 255 239T294 299Q297 315 299 337T302 379Q302 421 289 444T246 468Z"  />
<glyph unicode=":" horiz-adv-x="238" d="M72 -11Q47 -11 30 6T13 48Q13 77 34 97T84 118Q108 118 125 101T142 59Q142 30 122 10T72 -11ZM154 361Q129 361 112 378T95 420Q95 449 115 469T165 490Q190 490 207 473T224 431Q224 402 204 382T154 361Z"  />
<glyph unicode=";" horiz-adv-x="239" d="M145 52Q145 26 135 1T108 -48T67 -91T18 -124L-18 -86Q9 -73 35 -51T71 -2Q70 -3 67 -3T62 -3Q42 -3 28 11T13 49Q13 78 34 98T83 118Q108 118 126 101T145 52ZM154 361Q129 361 112 378T95 420Q95 449 115 469T165 490Q190 490 207 473T224 431Q224 402 204 382T154 361Z"  />
<glyph unicode="&lt;" horiz-adv-x="381" d="M41 301L56 368L411 511L393 434L122 331L348 228L332 158L41 301Z"  />
<glyph unicode="=" horiz-adv-x="381" d="M63 399L77 461H399L386 399H63ZM20 207L34 269H357L343 207H20Z"  />
<glyph unicode="&gt;" horiz-adv-x="381" d="M9 158L27 235L299 337L73 441L88 511L379 368L364 301L9 158Z"  />
<glyph unicode="?" horiz-adv-x="281" d="M313 461Q313 428 302 404T275 361T239 327T203 297T175 266T164 231Q164 217 174 202L95 173Q90 184 87 195T84 223Q84 262 103 287T147 335T190 380T210 436Q210 453 201 467T168 481Q141 481 118 458L82 515Q109 539 136 550T197 562Q248 562 280 535T313 461ZM95 -11Q70 -11 53 6T36 48Q36 77 57 97T107 118Q131 118 148 101T165 59Q165 30 145 10T95 -11Z"  />
<glyph unicode="@" horiz-adv-x="620" d="M287 -70Q233 -70 190 -50T117 7T71 96T55 215Q55 296 82 372T155 508T264 603T396 639Q442 639 480 623T546 575T589 498T605 396Q605 331 592 275T557 176T505 110T445 85Q412 85 391 103T365 153L364 161Q345 132 319 109T253 85Q236 85 220 91T190 111T168 150T160 211Q160 262 173 313T211 405T270 473T347 499Q377 499 394 480T419 431L430 483H514L458 220Q457 216 456 207T455 192Q455 151 484 151Q494 151 508 167T536 214T558 291T567 395Q567 497 520 550T394 603Q332 603 278 570T182 481T117 357T93 216Q93 161 106 115T144 36T206 -16T292 -35Q335 -35 369 -20T435 21L453 -7Q415 -37 375 -53T287 -70ZM292 153Q321 153 340 176T374 223L406 371Q401 393 391 411T359 430Q332 430 312 409T277 357T255 290T248 224Q248 191 258 172T292 153Z"  />
<glyph unicode="A" horiz-adv-x="398" d="M237 0L244 136H111L59 0H-51L232 667H352L341 0H237ZM268 548L144 228H251L268 548Z"  />
<glyph unicode="B" horiz-adv-x="431" d="M3 0L150 667H295Q331 667 358 656T405 627T433 583T443 527Q443 495 434 463T408 404T367 359T311 335Q330 329 343 317T366 289T379 254T383 216Q383 178 372 140T339 70T282 20T201 0H3ZM245 386Q267 386 283 398T310 428T326 467T332 508Q332 542 314 558T265 575H234L192 386H245ZM183 92Q204 92 221 103T251 132T271 174T278 224Q278 261 261 277T210 294H172L127 92H183Z"  />
<glyph unicode="C" horiz-adv-x="412" d="M191 -12Q116 -12 75 40T34 190Q34 228 40 278T61 383T96 490T148 585T218 652T306 678Q345 678 372 663T417 624T443 568T454 503L357 484Q354 530 341 557T299 585Q274 585 252 563T213 506T182 426T159 337T146 253T141 187Q141 130 155 106T197 81Q222 81 243 102T285 164L368 128Q336 62 294 25T191 -12Z"  />
<glyph unicode="D" horiz-adv-x="455" d="M3 0L150 667H296Q326 667 354 655T404 617T439 551T453 457Q453 427 447 382T428 285T392 183T336 92T258 26T153 0H3ZM127 92H171Q203 92 228 113T273 168T307 243T329 325T342 401T346 456Q346 520 325 547T276 575H234L127 92Z"  />
<glyph unicode="E" horiz-adv-x="367" d="M3 0L150 667H423L403 575H234L192 386H354L333 294H172L127 92H296L276 0H3Z"  />
<glyph unicode="F" horiz-adv-x="365" d="M3 0L150 667H423L403 575H234L192 386H354L333 294H172L107 0H3Z"  />
<glyph unicode="G" horiz-adv-x="435" d="M191 -12Q115 -12 75 40T34 190Q34 231 41 283T62 390T99 496T151 588T220 653T306 678Q345 678 371 664T415 628T440 576T449 515L360 494Q358 531 345 558T299 585Q274 585 253 564T214 508T183 431T160 343T146 257T141 187Q141 128 155 105T198 81Q221 81 237 95T270 130L298 261H217L238 353H412L354 93Q321 42 280 15T191 -12Z"  />
<glyph unicode="H" horiz-adv-x="463" d="M248 0L314 297H172L107 0H3L150 667H254L193 389H334L395 667H500L353 0H248Z"  />
<glyph unicode="I" horiz-adv-x="218" d="M3 0L150 667H254L107 0H3Z"  />
<glyph unicode="J" horiz-adv-x="337" d="M82 -12Q47 -12 15 -1T-37 34L8 116Q20 98 38 90T74 81Q108 81 128 100T158 161L270 667H374L261 156Q241 68 199 28T82 -12Z"  />
<glyph unicode="K" horiz-adv-x="448" d="M277 0L211 272L147 184L107 0H3L150 667H254L186 357L401 667H522L288 352L388 0H277Z"  />
<glyph unicode="L" horiz-adv-x="351" d="M3 0L150 667H254L127 92H296L276 0H3Z"  />
<glyph unicode="M" horiz-adv-x="591" d="M378 0L480 465L260 0H223L210 465L107 0H3L150 667H283L295 255L492 667H628L481 0H378Z"  />
<glyph unicode="N" horiz-adv-x="463" d="M254 0L201 429L107 0H3L150 667H254L303 251L395 667H500L353 0H254Z"  />
<glyph unicode="O" horiz-adv-x="459" d="M191 -12Q150 -12 120 4T71 47T43 111T34 190Q34 227 40 278T61 383T97 490T149 584T218 652T306 678Q347 678 377 662T426 618T454 553T463 474Q463 437 457 387T436 282T400 176T348 81T279 14T191 -12ZM197 81Q222 81 243 102T282 158T313 236T336 324T351 408T356 477Q356 526 344 555T299 585Q274 585 253 564T214 507T183 429T160 341T146 256T141 187Q141 139 153 110T197 81Z"  />
<glyph unicode="P" horiz-adv-x="418" d="M3 0L150 667H298Q331 667 358 655T404 622T434 571T445 506Q445 459 431 414T389 334T319 277T219 255H163L107 0H3ZM183 347H227Q254 347 274 360T308 395T329 443T336 496Q336 536 319 555T274 575H234L183 347Z"  />
<glyph unicode="Q" horiz-adv-x="459" d="M191 -12Q150 -12 120 4T71 47T43 111T34 190Q34 227 40 278T61 383T97 490T149 584T218 652T306 678Q347 678 377 662T426 618T454 553T463 474Q463 429 454 366T423 238T370 115T293 23L300 -21L221 -35L217 -10Q210 -11 204 -11T191 -12ZM202 81L181 215L260 229L274 143Q293 177 308 222T334 313T350 403T356 477Q356 526 344 555T299 585Q274 585 253 564T214 507T183 429T160 341T146 256T141 187Q141 139 153 110T197 81H202Z"  />
<glyph unicode="R" horiz-adv-x="438" d="M237 0L216 255H163L107 0H3L150 667H297Q330 667 357 655T404 621T435 570T446 506Q446 464 435 426T406 356T363 304T314 274L346 0H237ZM183 347H229Q255 347 275 360T308 395T329 443T336 497Q336 538 319 556T275 575H234L183 347Z"  />
<glyph unicode="S" horiz-adv-x="378" d="M140 -12Q89 -12 46 8T-20 61L42 138Q58 112 85 97T140 81Q157 81 173 88T202 110T222 144T230 190Q230 225 207 254T157 314T106 382T83 472Q83 515 98 552T140 618T201 662T276 678Q315 678 353 663T417 618L360 541Q345 561 323 573T275 585Q237 585 216 557T194 490Q194 458 216 430T266 369T315 298T338 207Q338 162 324 122T283 52T220 5T140 -12Z"  />
<glyph unicode="T" horiz-adv-x="347" d="M67 0L194 575H91L111 667H422L401 575H298L171 0H67Z"  />
<glyph unicode="U" horiz-adv-x="464" d="M197 -12Q164 -12 135 -2T85 29T51 78T39 143Q39 165 44 188L150 667H254L146 179Q145 174 144 165T143 147Q143 114 160 97T205 80Q236 80 256 102T289 179L396 667H500L394 184Q371 81 320 35T197 -12Z"  />
<glyph unicode="V" horiz-adv-x="398" d="M85 0L96 667H200L172 135L378 667H488L205 0H85Z"  />
<glyph unicode="W" horiz-adv-x="587" d="M301 0L343 466L178 0H71L107 667H212L167 184L343 667H427L390 184L558 667H666L408 0H301Z"  />
<glyph unicode="X" horiz-adv-x="408" d="M244 0L206 241L67 0H-53L168 345L102 667H212L243 437L372 667H493L282 335L354 0H244Z"  />
<glyph unicode="Y" horiz-adv-x="405" d="M97 0L158 279L90 667H197L228 382L386 667H501L262 279L201 0H97Z"  />
<glyph unicode="Z" horiz-adv-x="360" d="M-23 0L-4 89L273 575H104L124 667H416L397 582L117 92H296L276 0H-23Z"  />
<glyph unicode="[" horiz-adv-x="195" d="M-61 -190L131 678H273L259 612H187L23 -124H95L80 -190H-61Z"  />
<glyph unicode="\" horiz-adv-x="216" d="M89 687H157V-20H89V687Z"  />
<glyph unicode="]" horiz-adv-x="195" d="M-79 -190L-64 -124H8L171 612H99L113 678H256L63 -190H-79Z"  />
<glyph unicode="^" horiz-adv-x="334" d="M266 333L245 590L111 333H38L225 667H295L334 333H266Z"  />
<glyph unicode="_" horiz-adv-x="279" d="M-80 -106L-65 -40H219L204 -106H-80Z"  />
<glyph unicode="`" horiz-adv-x="164" d="M173 556L101 700H186L233 556H173Z"  />
<glyph unicode="a" horiz-adv-x="347" d="M296 550L290 0H191L197 110H92L50 0H-52L185 550H296ZM217 437L121 195H204L217 437Z"  />
<glyph unicode="b" horiz-adv-x="369" d="M-4 0L117 550H243Q306 550 341 521T376 438Q376 413 370 388T350 341T316 303T268 280Q297 268 311 243T325 183Q325 151 316 119T287 60T237 17T164 0H-4ZM157 85Q173 85 186 94T208 117T221 150T226 186Q226 238 181 238H146L112 85H157ZM205 324Q221 324 233 332T253 354T265 384T270 416Q270 442 257 453T217 465H196L164 324H207H205Z"  />
<glyph unicode="c" horiz-adv-x="371" d="M167 -12Q136 -12 110 -2T65 29T35 83T24 164Q24 195 29 236T47 322T78 409T122 486T181 541T256 562Q319 562 350 526T387 427L303 408Q297 476 254 476Q232 476 214 459T182 413T156 350T138 281T127 216T123 166Q123 114 137 94T176 74Q200 74 216 92T248 145L321 111Q308 87 294 65T261 25T220 -2T167 -12Z"  />
<glyph unicode="d" horiz-adv-x="409" d="M-4 0L117 550H224Q261 550 292 541T347 509T383 453T396 367Q396 335 391 296T373 216T342 136T296 67T232 19T149 0H-4ZM160 85Q193 85 218 115T261 190T287 282T296 365Q296 419 276 442T215 465H196L112 85H157H160Z"  />
<glyph unicode="e" horiz-adv-x="326" d="M-4 0L117 550H360L341 465H196L165 324H303L285 238H146L112 85H257L238 0H-4Z"  />
<glyph unicode="f" horiz-adv-x="324" d="M-4 0L117 550H360L341 465H196L165 324H303L285 238H146L94 0H-4Z"  />
<glyph unicode="g" horiz-adv-x="391" d="M174 -12Q99 -12 62 33T24 165Q24 200 30 243T49 331T81 416T126 490T184 542T256 562Q317 562 349 524T386 426L303 408Q299 437 289 456T252 476Q231 476 214 459T182 415T157 353T139 284T127 218T123 165Q123 114 137 94T180 74Q197 74 209 80T230 96L256 213H193L211 293H361L306 44Q278 18 246 3T174 -12Z"  />
<glyph unicode="h" horiz-adv-x="415" d="M213 0L265 240H146L94 0H-4L117 550H215L165 325H284L334 550H431L310 0H213Z"  />
<glyph unicode="i" horiz-adv-x="198" d="M-4 0L117 550H215L94 0H-4Z"  />
<glyph unicode="j" horiz-adv-x="298" d="M68 -12Q33 -12 4 -1T-41 31L3 104Q11 90 25 82T59 74Q111 74 125 139L217 550H314L221 128Q204 51 167 20T68 -12Z"  />
<glyph unicode="k" horiz-adv-x="397" d="M227 0L173 215L127 152L94 0H-4L117 550H215L161 305L338 550H447L246 290L337 0H227Z"  />
<glyph unicode="l" horiz-adv-x="312" d="M-4 0L117 550H215L112 85H257L238 0H-4Z"  />
<glyph unicode="m" horiz-adv-x="519" d="M319 0L399 364L225 0H186L174 364L94 0H-4L117 550H239L251 211L414 550H536L415 0H319Z"  />
<glyph unicode="n" horiz-adv-x="409" d="M210 0L171 350L94 0H-4L117 550H218L254 212L329 550H426L305 0H210Z"  />
<glyph unicode="o" horiz-adv-x="416" d="M170 -12Q103 -12 64 32T24 164Q24 190 29 229T45 313T74 401T118 481T178 539T258 562Q324 562 364 519T404 386Q404 360 399 321T383 237T353 149T309 69T249 11T170 -12ZM175 74Q198 74 216 93T249 141T273 207T291 278T301 342T304 387Q304 430 293 453T254 476Q231 476 213 457T180 409T154 343T137 272T127 208T123 163Q123 120 135 97T175 74Z"  />
<glyph unicode="p" horiz-adv-x="363" d="M-4 0L117 550H238Q302 550 340 515T378 415Q378 378 367 341T333 273T276 224T197 205H139L94 0H-4ZM198 290Q217 290 231 300T256 327T271 364T276 404Q276 465 221 465H196L158 290H196H198Z"  />
<glyph unicode="q" horiz-adv-x="416" d="M170 -12Q103 -12 64 32T24 164Q24 190 29 229T45 313T74 401T118 481T178 539T258 562Q324 562 364 519T404 386Q404 354 397 303T372 197T326 93T256 15L262 -22L192 -34L188 -11Q183 -11 179 -11T170 -12ZM229 185L239 123Q256 151 268 189T288 266T300 337T304 387Q304 430 293 453T254 476Q231 476 213 457T180 409T154 343T137 272T127 208T123 163Q123 120 135 97T174 74L159 172L229 185Z"  />
<glyph unicode="r" horiz-adv-x="380" d="M192 0L174 205H139L94 0H-4L117 550H237Q303 550 341 514T379 414Q379 381 370 350T346 292T310 246T266 219L297 0H192ZM199 290Q218 290 232 301T257 330T272 366T277 403Q277 435 263 450T225 465H196L158 290H188H199Z"  />
<glyph unicode="s" horiz-adv-x="335" d="M126 -12Q79 -12 41 3T-23 54L33 124Q66 74 121 74Q151 74 170 99T190 159Q190 189 171 211T129 258T87 313T68 389Q68 426 81 457T116 512T169 548T233 562Q271 562 304 549T362 508L308 437Q279 476 234 476Q208 476 190 454T171 400Q171 372 190 351T232 304T275 246T294 161Q294 129 282 98T247 43T193 3T126 -12Z"  />
<glyph unicode="t" horiz-adv-x="294" d="M44 0L146 465H63L82 550H346L327 465H244L142 0H44Z"  />
<glyph unicode="u" horiz-adv-x="414" d="M173 -12Q102 -12 64 20T26 109Q26 126 28 142T33 167L117 550H215L128 160Q127 154 126 144T124 129Q124 97 139 86T177 74Q205 74 221 96T247 163L333 550H431L346 170Q326 82 287 35T173 -12Z"  />
<glyph unicode="v" horiz-adv-x="347" d="M64 0L69 550H169L149 137L310 550H411L175 0H64Z"  />
<glyph unicode="w" horiz-adv-x="514" d="M256 0L282 356L150 0H51L73 550H173L145 181L285 550H364L341 180L476 550H576L355 0H256Z"  />
<glyph unicode="x" horiz-adv-x="360" d="M200 0L170 198L54 0H-54L127 280L73 550H179L205 362L312 550H420L248 281L306 0H200Z"  />
<glyph unicode="y" horiz-adv-x="358" d="M76 0L126 230L65 550H167L196 328L323 550H427L224 230L174 0H76Z"  />
<glyph unicode="z" horiz-adv-x="309" d="M-29 0L-13 75L215 464H73L92 550H345L329 477L100 86H249L230 0H-29Z"  />
<glyph unicode="{" horiz-adv-x="212" d="M76 -190Q58 -190 42 -184T12 -167T-9 -139T-18 -102Q-18 -95 -17 -88T-14 -75L35 147Q37 157 37 166Q37 188 28 201T-2 215L11 273Q40 273 55 292T78 341L128 565Q141 622 175 650T262 678H291L276 612H247Q230 612 217 601T198 565L145 325Q137 291 123 269T80 236Q109 221 109 181Q109 173 108 165T105 147L57 -72Q56 -77 55 -81T54 -90Q54 -107 63 -116T84 -125H113L98 -190H76Z"  />
<glyph unicode="|" horiz-adv-x="179" d="M77 -20V687H142V-20H77Z"  />
<glyph unicode="}" horiz-adv-x="212" d="M135 678Q153 678 169 672T199 655T221 627T229 589Q229 584 228 576T225 563L176 341Q174 331 174 321Q174 300 183 287T213 273L200 215Q171 215 156 196T133 147L83 -77Q70 -134 36 -162T-51 -190H-80L-65 -124H-36Q-19 -124 -6 -113T13 -77L66 163Q74 197 88 219T131 252Q102 266 102 307Q102 315 103 323T106 341L154 560Q155 565 156 569T157 578Q157 595 148 604T127 613H98L113 678H135Z"  />
<glyph unicode="~" horiz-adv-x="407" d="M472 661Q464 624 452 582T422 503T376 443T313 419Q284 419 270 432T250 467T244 511T242 556T237 590T220 604Q197 604 176 561T132 418L66 425Q73 462 85 504T117 582T163 642T226 666Q255 666 269 652T289 618T295 573T296 529T301 494T318 480Q341 480 362 523T406 667L472 661Z"  />
<glyph unicode="&#xA0;" horiz-adv-x="165" />
<glyph unicode="&#xA1;" horiz-adv-x="191" d="M72 370H146L81 0H-25L72 370ZM143 561Q168 561 184 544T201 502Q201 473 181 453T131 432Q106 432 90 449T73 491Q73 520 93 540T143 561Z"  />
<glyph unicode="&#xA2;" horiz-adv-x="371" d="M98 -89L116 -4Q74 10 49 50T24 164Q24 194 29 234T46 317T75 402T117 478T172 534T243 561L256 621H326L310 552Q345 538 363 506T387 427L303 408Q300 442 286 461L201 80Q215 88 226 104T248 145L321 111Q309 88 296 68T267 31T230 3T184 -11L168 -89H98ZM123 166Q123 107 141 88L227 468Q210 457 196 436T170 386T149 327T135 265T126 209T123 166Z"  />
<glyph unicode="&#xA3;" horiz-adv-x="335" d="M32 284H75Q72 301 70 319T67 359Q67 404 80 441T117 505T171 546T236 561Q260 561 281 554T319 532T346 498T357 452L279 433Q274 490 235 490Q217 490 204 478T181 445T168 399T163 349Q163 330 164 315T168 284H236L223 228H172V210Q171 186 164 167T147 131T127 103T108 84Q118 90 130 90Q143 90 153 87T171 80T189 73T209 69Q226 69 239 76T262 95L277 28Q261 11 240 1T191 -9Q168 -9 153 -5T126 6T103 16T75 21Q59 21 43 14T8 -7L-8 54Q8 63 25 78T55 112T77 154T86 204Q86 210 86 216T85 228H19L32 284Z"  />
<glyph unicode="&#xA4;" horiz-adv-x="506" d="M253 222Q310 222 341 262T372 365Q372 395 364 421T341 467T304 498T253 509Q224 509 202 498T165 468T141 422T133 365Q133 334 141 308T164 263T202 233T253 222ZM19 168L88 239Q50 294 50 365Q50 436 88 489L19 560L64 603L131 534Q155 552 185 563T253 574Q289 574 320 563T375 534L442 603L487 560L418 489Q455 435 455 365Q455 330 445 298T417 240L487 168L442 125L374 194Q325 157 253 157Q181 157 132 194L64 125L19 168Z"  />
<glyph unicode="&#xA5;" horiz-adv-x="358" d="M76 0L100 111H-10L2 166H112L126 229H16L29 284H115L65 550H167L196 328L323 550H427L258 284H347L334 229H224L210 166H320L308 111H198L174 0H76Z"  />
<glyph unicode="&#xA6;" horiz-adv-x="179" d="M77 -20V296H142V-20H77ZM77 371V687H142V371H77Z"  />
<glyph unicode="&#xA7;" horiz-adv-x="331" d="M325 331Q325 281 300 243T223 184Q245 165 257 139T270 85Q270 51 258 21T225 -31T175 -67T110 -81Q60 -81 20 -66T-42 -16L12 44Q26 20 49 5T105 -10Q136 -10 157 14T178 72Q178 92 168 106T143 134T110 161T77 190T51 229T41 281Q41 331 70 369T151 418Q125 439 111 467T96 527Q96 560 108 587T140 635T188 666T245 677Q297 677 331 661T386 615L334 563Q318 588 297 598T250 609Q221 609 204 588T186 538Q186 509 207 489T255 448T303 400T325 331ZM237 309Q237 335 226 353T204 382Q181 378 167 370T144 350T132 326T128 299Q128 279 139 258T175 220Q237 244 237 309Z"  />
<glyph unicode="&#xA8;" horiz-adv-x="272" d="M347 612Q347 589 329 571T286 553Q266 553 252 566T238 601Q238 624 256 642T299 660Q319 660 333 647T347 612ZM194 612Q194 589 176 571T133 553Q113 553 99 566T85 601Q85 624 103 642T146 660Q166 660 180 647T194 612Z"  />
<glyph unicode="&#xA9;" horiz-adv-x="778" d="M754 334Q754 263 727 200T652 90T542 16T408 -11Q337 -11 274 16T165 90T91 200T64 334Q64 405 91 468T164 578T274 652T408 679Q479 679 542 652T652 578T726 468T754 334ZM721 334Q721 398 696 455T629 554T529 621T408 646Q344 646 288 622T189 555T122 455T97 334Q97 270 121 213T188 114T287 47T408 22Q472 22 529 46T628 113T696 213T721 334ZM527 175Q500 152 466 137T391 122Q346 122 311 136T251 175T213 234T199 307Q199 358 219 402T271 478T346 529T434 547Q485 547 525 528T591 467L558 443Q540 477 508 494T433 512Q398 512 363 497T301 454T256 390T239 308Q239 278 249 251T280 202T328 169T391 157Q423 157 454 171T506 205L527 175Z"  />
<glyph unicode="&#xAA;" horiz-adv-x="304" d="M221 592Q203 592 189 576T165 535T149 482T143 431Q143 404 152 389T180 374Q194 374 208 388T232 419L260 551Q258 568 247 580T221 592ZM350 640L281 326H211L220 367Q203 340 184 329T147 318Q114 318 93 343T71 426Q71 460 80 499T106 571T147 626T204 648Q224 648 243 636T271 600L280 640H350Z"  />
<glyph unicode="&#xAB;" horiz-adv-x="359" d="M79 63L29 243L159 420H236L103 239L152 63H79ZM213 63L163 243L293 420H370L237 239L286 63H213Z"  />
<glyph unicode="&#xAC;" horiz-adv-x="381" d="M343 207H279L321 399H63L77 461H399L343 207Z"  />
<glyph unicode="&#xAD;" horiz-adv-x="239" d="M20 201L38 283H216L199 201H20Z"  />
<glyph unicode="&#xAE;" horiz-adv-x="494" d="M508 465Q508 421 492 383T446 315T378 270T295 253Q251 253 213 269T146 315T101 382T84 465Q84 509 100 548T146 615T213 660T296 677Q340 677 379 661T446 616T491 548T508 465ZM478 465Q478 503 464 536T425 594T367 633T295 647Q257 647 224 633T167 595T128 537T114 465Q114 427 128 394T166 337T224 298T295 283Q333 283 366 297T424 336T463 394T478 465ZM329 343L287 439H242L221 343H188L241 586H333Q363 586 383 569T404 522Q404 504 397 489T379 463T353 446T324 440L368 343H329ZM369 518Q369 538 357 547T327 557H268L248 469H315Q337 469 353 483T369 518Z"  />
<glyph unicode="&#xAF;" horiz-adv-x="254" d="M77 591L89 648H342L330 591H77Z"  />
<glyph unicode="&#xB0;" horiz-adv-x="298" d="M343 550Q343 524 333 501T306 461T265 434T216 424Q190 424 167 434T127 461T100 501T90 550Q90 576 100 599T127 639T167 667T216 677Q242 677 265 667T305 640T333 599T343 550ZM288 550Q288 579 267 600T216 622Q187 622 167 601T146 550Q146 521 166 501T215 480Q244 480 266 500T288 550Z"  />
<glyph unicode="&#xB1;" horiz-adv-x="381" d="M238 306L204 157H137L170 306H43L56 368H184L215 511H283L252 368H379L365 306H238ZM-18 35L-4 96H319L305 35H-18Z"  />
<glyph unicode="&#xB2;" horiz-adv-x="281" d="M68 421L81 479Q144 536 184 574T248 640T281 686T291 723Q291 745 278 756T245 768Q203 768 168 721L131 768Q155 795 185 811T250 827Q274 827 294 821T331 802T356 772T365 730Q365 703 353 678T317 624T257 561T171 480H313L300 421H68Z"  />
<glyph unicode="&#xB3;" horiz-adv-x="281" d="M326 542Q326 520 318 498T293 457T252 426T197 414Q153 414 121 432T74 484L129 524Q137 501 154 487T194 473Q210 473 221 480T240 499T251 525T255 552Q255 575 242 586T209 597Q201 597 194 597T182 596L194 655Q198 654 209 654T226 654Q253 654 271 673T290 724Q290 744 278 756T243 768Q222 768 204 757T170 726L132 767Q181 827 249 827Q301 827 332 803T363 734Q363 717 357 699T340 664T311 637T272 622Q300 614 313 592T326 542Z"  />
<glyph unicode="&#xB4;" horiz-adv-x="164" d="M130 556H67L178 700H265L130 556Z"  />
<glyph unicode="&#xB5;" horiz-adv-x="402" d="M-44 -184L103 483H197L117 126Q105 70 146 70Q170 70 194 91T234 139L311 483H405L298 0H204L217 60Q195 30 160 9T90 -12H86L49 -184H-44Z"  />
<glyph unicode="&#xB6;" horiz-adv-x="449" d="M259 -100L418 616H333L173 -100H122L216 323Q188 323 163 334T120 367T90 416T79 479Q79 514 93 548T134 608T195 651T273 667H480L310 -100H259Z"  />
<glyph unicode="&#xB7;" horiz-adv-x="239" d="M113 180Q89 180 72 197T55 239Q55 268 75 288T125 309Q150 309 167 292T184 250Q184 221 163 201T113 180Z"  />
<glyph unicode="&#xB8;" horiz-adv-x="175" d="M-1 -193Q-56 -193 -89 -155L-61 -116Q-37 -148 0 -148Q20 -148 32 -135T45 -104Q45 -80 22 -80Q7 -80 -4 -93L-37 -72L13 11H64L23 -54Q33 -44 47 -44Q69 -44 83 -59T97 -101Q97 -121 90 -137T69 -166T38 -186T-1 -193Z"  />
<glyph unicode="&#xB9;" horiz-adv-x="232" d="M150 421L216 723L149 666L114 710L248 821H311L223 421H150Z"  />
<glyph unicode="&#xBA;" horiz-adv-x="300" d="M180 318Q126 318 100 350T74 435Q74 467 83 504T112 573T159 626T225 648Q279 648 305 616T331 531Q331 499 322 462T293 393T246 340T180 318ZM183 375Q203 375 217 394T241 439T255 492T260 534Q260 590 221 590Q201 590 187 571T163 526T149 474T144 431Q144 375 183 375Z"  />
<glyph unicode="&#xBB;" horiz-adv-x="359" d="M146 420L196 240L66 63H-11L122 244L73 420H146ZM280 420L330 240L200 63H123L256 244L207 420H280Z"  />
<glyph unicode="&#xBC;" horiz-adv-x="617" d="M138 0H92L515 667H562L138 0ZM535 95L514 0H442L462 95H318L330 153L514 400H602L548 153H582L570 95H535ZM511 315L393 153H475L511 315ZM116 267L182 569L115 512L80 556L214 667H277L189 267H116Z"  />
<glyph unicode="&#xBD;" horiz-adv-x="651" d="M138 0H92L515 667H562L138 0ZM345 0L358 58Q421 115 461 153T525 219T558 265T568 302Q568 324 555 335T522 347Q480 347 445 300L408 347Q432 374 462 390T527 406Q551 406 571 400T608 381T633 351T642 309Q642 282 630 257T594 203T534 140T448 59H590L577 0H345ZM116 267L182 569L115 512L80 556L214 667H277L189 267H116Z"  />
<glyph unicode="&#xBE;" horiz-adv-x="653" d="M174 0H128L551 667H598L174 0ZM571 95L550 0H478L498 95H354L366 153L550 400H638L584 153H618L606 95H571ZM547 315L429 153H511L547 315ZM292 388Q292 366 284 344T259 303T218 272T163 260Q119 260 87 278T40 330L95 370Q103 347 120 333T160 319Q176 319 187 326T206 345T217 371T221 398Q221 421 208 432T175 443Q167 443 160 443T148 442L160 501Q164 500 175 500T192 500Q219 500 237 519T256 570Q256 590 244 602T209 614Q188 614 170 603T136 572L98 613Q147 673 215 673Q267 673 298 649T329 580Q329 563 323 545T306 510T277 483T238 468Q266 460 279 438T292 388Z"  />
<glyph unicode="&#xBF;" horiz-adv-x="281" d="M-32 89Q-32 121 -21 145T6 189T42 223T78 253T106 283T117 319Q117 333 107 348L186 377Q191 366 194 355T197 327Q197 288 178 263T134 215T91 170T71 114Q71 97 80 83T113 69Q140 69 163 92L199 35Q172 11 145 0T84 -12Q33 -12 1 15T-32 89ZM186 561Q211 561 228 544T245 502Q245 473 224 453T174 432Q150 432 133 449T116 491Q116 520 136 540T186 561Z"  />
<glyph unicode="&#xC0;" horiz-adv-x="398" d="M305 728L233 872H318L365 728H305ZM237 0L244 136H111L59 0H-51L232 667H352L341 0H237ZM268 548L144 228H251L268 548Z"  />
<glyph unicode="&#xC1;" horiz-adv-x="398" d="M310 728H247L358 872H445L310 728ZM237 0L244 136H111L59 0H-51L232 667H352L341 0H237ZM268 548L144 228H251L268 548Z"  />
<glyph unicode="&#xC2;" horiz-adv-x="398" d="M364 728L328 826L254 728H198L294 872H381L416 728H364ZM237 0L244 136H111L59 0H-51L232 667H352L341 0H237ZM268 548L144 228H251L268 548Z"  />
<glyph unicode="&#xC3;" horiz-adv-x="398" d="M348 726Q325 726 317 739T304 767T296 796T276 809Q262 809 251 791T231 732H180Q193 789 217 827T282 866Q305 866 313 853T326 825T335 796T355 783Q369 783 380 801T400 860H452Q439 803 414 765T348 726ZM237 0L244 136H111L59 0H-51L232 667H352L341 0H237ZM268 548L144 228H251L268 548Z"  />
<glyph unicode="&#xC4;" horiz-adv-x="398" d="M448 783Q448 760 430 742T387 724Q367 724 353 737T339 772Q339 795 357 813T400 831Q420 831 434 818T448 783ZM295 783Q295 760 277 742T234 724Q214 724 200 737T186 772Q186 795 204 813T247 831Q267 831 281 818T295 783ZM237 0L244 136H111L59 0H-51L232 667H352L341 0H237ZM268 548L144 228H251L268 548Z"  />
<glyph unicode="&#xC5;" horiz-adv-x="398" d="M307 692Q273 692 252 714T230 770Q230 789 238 806T259 837T289 859T326 867Q361 867 382 845T403 788Q403 769 395 752T374 721T344 700T307 692ZM312 736Q331 736 345 750T360 784Q360 801 350 812T323 823Q303 823 289 809T275 775Q275 758 285 747T312 736ZM237 0L244 136H111L59 0H-51L232 667H352L341 0H237ZM268 548L144 228H251L268 548Z"  />
<glyph unicode="&#xC6;" horiz-adv-x="584" d="M221 0L251 136H135L65 0H-45L323 667H641L621 575H453L411 386H573L552 294H390L346 92H514L494 0H221ZM340 537L181 228H272L340 537Z"  />
<glyph unicode="&#xC7;" horiz-adv-x="412" d="M142 -193Q87 -193 54 -155L82 -116Q106 -148 143 -148Q163 -148 175 -135T188 -104Q188 -80 165 -80Q150 -80 139 -93L106 -72L145 -6Q91 8 63 58T34 190Q34 228 40 278T61 383T96 490T148 585T218 652T306 678Q345 678 372 663T417 624T443 568T454 503L357 484Q354 530 341 557T299 585Q274 585 252 563T213 506T182 426T159 337T146 253T141 187Q141 130 155 106T197 81Q222 81 243 102T285 164L368 128Q336 62 294 26T192 -12L166 -54Q176 -44 190 -44Q212 -44 226 -59T240 -101Q240 -121 233 -137T212 -166T181 -186T142 -193Z"  />
<glyph unicode="&#xC8;" horiz-adv-x="367" d="M302 728L230 872H315L362 728H302ZM3 0L150 667H423L403 575H234L192 386H354L333 294H172L127 92H296L276 0H3Z"  />
<glyph unicode="&#xC9;" horiz-adv-x="367" d="M307 728H244L355 872H442L307 728ZM3 0L150 667H423L403 575H234L192 386H354L333 294H172L127 92H296L276 0H3Z"  />
<glyph unicode="&#xCA;" horiz-adv-x="367" d="M359 728L323 826L249 728H193L289 872H376L411 728H359ZM3 0L150 667H423L403 575H234L192 386H354L333 294H172L127 92H296L276 0H3Z"  />
<glyph unicode="&#xCB;" horiz-adv-x="367" d="M444 783Q444 760 426 742T383 724Q363 724 349 737T335 772Q335 795 353 813T396 831Q416 831 430 818T444 783ZM291 783Q291 760 273 742T230 724Q210 724 196 737T182 772Q182 795 200 813T243 831Q263 831 277 818T291 783ZM3 0L150 667H423L403 575H234L192 386H354L333 294H172L127 92H296L276 0H3Z"  />
<glyph unicode="&#xCC;" horiz-adv-x="218" d="M214 728L142 872H227L274 728H214ZM3 0L150 667H254L107 0H3Z"  />
<glyph unicode="&#xCD;" horiz-adv-x="218" d="M221 728H158L269 872H356L221 728ZM3 0L150 667H254L107 0H3Z"  />
<glyph unicode="&#xCE;" horiz-adv-x="218" d="M274 728L238 826L164 728H108L204 872H291L326 728H274ZM3 0L150 667H254L107 0H3Z"  />
<glyph unicode="&#xCF;" horiz-adv-x="218" d="M360 782Q360 759 342 741T299 723Q279 723 265 736T251 771Q251 794 269 812T312 830Q332 830 346 817T360 782ZM207 782Q207 759 189 741T146 723Q126 723 112 736T98 771Q98 794 116 812T159 830Q179 830 193 817T207 782ZM3 0L150 667H254L107 0H3Z"  />
<glyph unicode="&#xD0;" horiz-adv-x="476" d="M24 0L88 291H28L47 376H107L171 667H317Q347 667 375 655T425 617T460 551T474 457Q474 427 468 382T449 285T413 183T357 92T279 26T174 0H24ZM192 291L148 92H192Q224 92 249 113T294 168T328 243T350 325T363 401T367 456Q367 520 346 547T297 575H255L211 376H287L268 291H192Z"  />
<glyph unicode="&#xD1;" horiz-adv-x="463" d="M384 726Q361 726 353 739T340 767T332 796T312 809Q298 809 287 791T267 732H216Q229 789 253 827T318 866Q341 866 349 853T362 825T371 796T391 783Q405 783 416 801T436 860H488Q475 803 450 765T384 726ZM254 0L201 429L107 0H3L150 667H254L303 251L395 667H500L353 0H254Z"  />
<glyph unicode="&#xD2;" horiz-adv-x="459" d="M334 728L262 872H347L394 728H334ZM191 -12Q150 -12 120 4T71 47T43 111T34 190Q34 227 40 278T61 383T97 490T149 584T218 652T306 678Q347 678 377 662T426 618T454 553T463 474Q463 437 457 387T436 282T400 176T348 81T279 14T191 -12ZM197 81Q222 81 243 102T282 158T313 236T336 324T351 408T356 477Q356 526 344 555T299 585Q274 585 253 564T214 507T183 429T160 341T146 256T141 187Q141 139 153 110T197 81Z"  />
<glyph unicode="&#xD3;" horiz-adv-x="459" d="M340 728H277L388 872H475L340 728ZM191 -12Q150 -12 120 4T71 47T43 111T34 190Q34 227 40 278T61 383T97 490T149 584T218 652T306 678Q347 678 377 662T426 618T454 553T463 474Q463 437 457 387T436 282T400 176T348 81T279 14T191 -12ZM197 81Q222 81 243 102T282 158T313 236T336 324T351 408T356 477Q356 526 344 555T299 585Q274 585 253 564T214 507T183 429T160 341T146 256T141 187Q141 139 153 110T197 81Z"  />
<glyph unicode="&#xD4;" horiz-adv-x="459" d="M395 728L359 826L285 728H229L325 872H412L447 728H395ZM191 -12Q150 -12 120 4T71 47T43 111T34 190Q34 227 40 278T61 383T97 490T149 584T218 652T306 678Q347 678 377 662T426 618T454 553T463 474Q463 437 457 387T436 282T400 176T348 81T279 14T191 -12ZM197 81Q222 81 243 102T282 158T313 236T336 324T351 408T356 477Q356 526 344 555T299 585Q274 585 253 564T214 507T183 429T160 341T146 256T141 187Q141 139 153 110T197 81Z"  />
<glyph unicode="&#xD5;" horiz-adv-x="459" d="M385 726Q362 726 354 739T341 767T333 796T313 809Q299 809 288 791T268 732H217Q230 789 254 827T319 866Q342 866 350 853T363 825T372 796T392 783Q406 783 417 801T437 860H489Q476 803 451 765T385 726ZM191 -12Q150 -12 120 4T71 47T43 111T34 190Q34 227 40 278T61 383T97 490T149 584T218 652T306 678Q347 678 377 662T426 618T454 553T463 474Q463 437 457 387T436 282T400 176T348 81T279 14T191 -12ZM197 81Q222 81 243 102T282 158T313 236T336 324T351 408T356 477Q356 526 344 555T299 585Q274 585 253 564T214 507T183 429T160 341T146 256T141 187Q141 139 153 110T197 81Z"  />
<glyph unicode="&#xD6;" horiz-adv-x="459" d="M478 783Q478 760 460 742T417 724Q397 724 383 737T369 772Q369 795 387 813T430 831Q450 831 464 818T478 783ZM325 783Q325 760 307 742T264 724Q244 724 230 737T216 772Q216 795 234 813T277 831Q297 831 311 818T325 783ZM191 -12Q150 -12 120 4T71 47T43 111T34 190Q34 227 40 278T61 383T97 490T149 584T218 652T306 678Q347 678 377 662T426 618T454 553T463 474Q463 437 457 387T436 282T400 176T348 81T279 14T191 -12ZM197 81Q222 81 243 102T282 158T313 236T336 324T351 408T356 477Q356 526 344 555T299 585Q274 585 253 564T214 507T183 429T160 341T146 256T141 187Q141 139 153 110T197 81Z"  />
<glyph unicode="&#xD7;" horiz-adv-x="381" d="M204 290L76 185L38 233L167 338L88 439L137 479L215 378L344 483L382 435L254 330L332 229L283 189L204 290Z"  />
<glyph unicode="&#xD8;" horiz-adv-x="459" d="M191 -12Q154 -12 127 0T80 35L57 0H-7L51 86Q42 109 38 135T34 190Q34 227 40 278T61 383T97 490T149 584T218 652T306 678Q343 678 370 665T417 629L442 667H506L446 578Q463 530 463 474Q463 437 457 387T436 282T400 176T348 81T279 14T191 -12ZM299 585Q276 585 257 567T220 519T190 451T167 373T151 293T142 221L351 532Q345 557 333 571T299 585ZM197 81Q219 81 239 99T275 146T305 213T329 291T345 370T354 441L146 132Q151 108 163 95T197 81Z"  />
<glyph unicode="&#xD9;" horiz-adv-x="464" d="M338 728L266 872H351L398 728H338ZM197 -12Q164 -12 135 -2T85 29T51 78T39 143Q39 165 44 188L150 667H254L146 179Q145 174 144 165T143 147Q143 114 160 97T205 80Q236 80 256 102T289 179L396 667H500L394 184Q371 81 320 35T197 -12Z"  />
<glyph unicode="&#xDA;" horiz-adv-x="464" d="M343 728H280L391 872H478L343 728ZM197 -12Q164 -12 135 -2T85 29T51 78T39 143Q39 165 44 188L150 667H254L146 179Q145 174 144 165T143 147Q143 114 160 97T205 80Q236 80 256 102T289 179L396 667H500L394 184Q371 81 320 35T197 -12Z"  />
<glyph unicode="&#xDB;" horiz-adv-x="464" d="M397 728L361 826L287 728H231L327 872H414L449 728H397ZM197 -12Q164 -12 135 -2T85 29T51 78T39 143Q39 165 44 188L150 667H254L146 179Q145 174 144 165T143 147Q143 114 160 97T205 80Q236 80 256 102T289 179L396 667H500L394 184Q371 81 320 35T197 -12Z"  />
<glyph unicode="&#xDC;" horiz-adv-x="464" d="M481 783Q481 760 463 742T420 724Q400 724 386 737T372 772Q372 795 390 813T433 831Q453 831 467 818T481 783ZM328 783Q328 760 310 742T267 724Q247 724 233 737T219 772Q219 795 237 813T280 831Q300 831 314 818T328 783ZM197 -12Q164 -12 135 -2T85 29T51 78T39 143Q39 165 44 188L150 667H254L146 179Q145 174 144 165T143 147Q143 114 160 97T205 80Q236 80 256 102T289 179L396 667H500L394 184Q371 81 320 35T197 -12Z"  />
<glyph unicode="&#xDD;" horiz-adv-x="405" d="M316 728H253L364 872H451L316 728ZM97 0L158 279L90 667H197L228 382L386 667H501L262 279L201 0H97Z"  />
<glyph unicode="&#xDE;" horiz-adv-x="418" d="M3 0L150 667H254L229 552H272Q305 552 332 540T378 507T408 457T419 391Q419 349 406 305T366 224T296 164T193 140H138L107 0H3ZM202 232Q228 232 248 245T282 279T303 327T310 381Q310 418 294 439T248 460H208L158 232H202Z"  />
<glyph unicode="&#xDF;" horiz-adv-x="670" d="M126 -12Q79 -12 41 3T-23 54L33 124Q66 74 121 74Q151 74 170 99T190 159Q190 189 171 211T129 258T87 313T68 389Q68 426 81 457T116 512T169 548T233 562Q271 562 304 549T362 508L308 437Q279 476 234 476Q208 476 190 454T171 400Q171 372 190 351T232 304T275 246T294 161Q294 129 282 98T247 43T193 3T126 -12ZM461 -12Q414 -12 376 3T312 54L368 124Q401 74 456 74Q486 74 505 99T525 159Q525 189 506 211T464 258T422 313T403 389Q403 426 416 457T451 512T504 548T568 562Q606 562 639 549T697 508L643 437Q614 476 569 476Q543 476 525 454T506 400Q506 372 525 351T567 304T610 246T629 161Q629 129 617 98T582 43T528 3T461 -12Z"  />
<glyph unicode="&#xE0;" horiz-adv-x="347" d="M296 550L290 0H191L197 110H92L50 0H-52L185 550H296ZM217 437L121 195H204L217 437ZM252 606L180 750H265L312 606H252Z"  />
<glyph unicode="&#xE1;" horiz-adv-x="347" d="M296 550L290 0H191L197 110H92L50 0H-52L185 550H296ZM217 437L121 195H204L217 437ZM257 606H194L305 750H392L257 606Z"  />
<glyph unicode="&#xE2;" horiz-adv-x="347" d="M296 550L290 0H191L197 110H92L50 0H-52L185 550H296ZM217 437L121 195H204L217 437ZM311 606L275 704L201 606H145L241 750H328L363 606H311Z"  />
<glyph unicode="&#xE3;" horiz-adv-x="347" d="M296 550L290 0H191L197 110H92L50 0H-52L185 550H296ZM217 437L121 195H204L217 437ZM301 604Q278 604 270 617T257 645T249 674T229 687Q215 687 204 669T184 610H133Q146 667 170 705T235 744Q258 744 266 731T279 703T288 674T308 661Q322 661 333 679T353 738H405Q392 681 367 643T301 604Z"  />
<glyph unicode="&#xE4;" horiz-adv-x="347" d="M296 550L290 0H191L197 110H92L50 0H-52L185 550H296ZM217 437L121 195H204L217 437ZM396 670Q396 647 378 629T335 611Q315 611 301 624T287 659Q287 682 305 700T348 718Q368 718 382 705T396 670ZM243 670Q243 647 225 629T182 611Q162 611 148 624T134 659Q134 682 152 700T195 718Q215 718 229 705T243 670Z"  />
<glyph unicode="&#xE5;" horiz-adv-x="347" d="M296 550L290 0H191L197 110H92L50 0H-52L185 550H296ZM217 437L121 195H204L217 437ZM261 601Q227 601 206 623T184 679Q184 698 192 715T213 746T243 768T280 776Q315 776 336 754T357 697Q357 678 349 661T328 630T298 609T261 601ZM266 645Q285 645 299 659T314 693Q314 710 304 721T277 732Q257 732 243 718T229 684Q229 667 239 656T266 645Z"  />
<glyph unicode="&#xE6;" horiz-adv-x="502" d="M173 0L197 110H102L45 0H-57L251 550H536L517 465H373L342 324H480L461 238H323L289 85H434L415 0H173ZM270 438L142 195H215L270 438Z"  />
<glyph unicode="&#xE7;" horiz-adv-x="371" d="M115 -193Q60 -193 27 -155L55 -116Q79 -148 116 -148Q136 -148 148 -135T161 -104Q161 -80 138 -80Q123 -80 112 -93L79 -72L119 -5Q76 8 50 48T24 164Q24 195 29 236T47 322T78 409T122 486T181 541T256 562Q319 562 350 526T387 427L303 408Q297 476 254 476Q232 476 214 459T182 413T156 350T138 281T127 216T123 166Q123 114 137 94T176 74Q200 74 216 92T248 145L321 111Q308 87 294 65T261 25T220 -2T167 -12H165L139 -54Q149 -44 163 -44Q185 -44 199 -59T213 -101Q213 -121 206 -137T185 -166T154 -186T115 -193Z"  />
<glyph unicode="&#xE8;" horiz-adv-x="326" d="M-4 0L117 550H360L341 465H196L165 324H303L285 238H146L112 85H257L238 0H-4ZM251 606L179 750H264L311 606H251Z"  />
<glyph unicode="&#xE9;" horiz-adv-x="326" d="M-4 0L117 550H360L341 465H196L165 324H303L285 238H146L112 85H257L238 0H-4ZM256 606H193L304 750H391L256 606Z"  />
<glyph unicode="&#xEA;" horiz-adv-x="326" d="M-4 0L117 550H360L341 465H196L165 324H303L285 238H146L112 85H257L238 0H-4ZM308 606L272 704L198 606H142L238 750H325L360 606H308Z"  />
<glyph unicode="&#xEB;" horiz-adv-x="326" d="M-4 0L117 550H360L341 465H196L165 324H303L285 238H146L112 85H257L238 0H-4ZM396 670Q396 647 378 629T335 611Q315 611 301 624T287 659Q287 682 305 700T348 718Q368 718 382 705T396 670ZM243 670Q243 647 225 629T182 611Q162 611 148 624T134 659Q134 682 152 700T195 718Q215 718 229 705T243 670Z"  />
<glyph unicode="&#xEC;" horiz-adv-x="195" d="M-4 0L117 550H215L94 0H-4ZM176 606L104 750H189L236 606H176Z"  />
<glyph unicode="&#xED;" horiz-adv-x="195" d="M-4 0L117 550H215L94 0H-4ZM181 606H118L229 750H316L181 606Z"  />
<glyph unicode="&#xEE;" horiz-adv-x="195" d="M-4 0L117 550H215L94 0H-4ZM234 606L198 704L124 606H68L164 750H251L286 606H234Z"  />
<glyph unicode="&#xEF;" horiz-adv-x="195" d="M-4 0L117 550H215L94 0H-4ZM322 670Q322 647 304 629T261 611Q241 611 227 624T213 659Q213 682 231 700T274 718Q294 718 308 705T322 670ZM169 670Q169 647 151 629T108 611Q88 611 74 624T60 659Q60 682 78 700T121 718Q141 718 155 705T169 670Z"  />
<glyph unicode="&#xF0;" horiz-adv-x="433" d="M16 0L69 244H18L33 313H84L137 550H244Q281 550 312 541T367 509T403 453T416 367Q416 335 411 296T393 216T362 136T316 67T252 19T169 0H16ZM180 85Q213 85 238 115T281 190T307 282T316 365Q316 419 296 442T235 465H216L182 313H241L225 244H167L132 85H180Z"  />
<glyph unicode="&#xF1;" horiz-adv-x="409" d="M210 0L171 350L94 0H-4L117 550H218L254 212L329 550H426L305 0H210ZM330 604Q307 604 299 617T286 645T278 674T258 687Q244 687 233 669T213 610H162Q175 667 199 705T264 744Q287 744 295 731T308 703T317 674T337 661Q351 661 362 679T382 738H434Q421 681 396 643T330 604Z"  />
<glyph unicode="&#xF2;" horiz-adv-x="416" d="M170 -12Q103 -12 64 32T24 164Q24 190 29 229T45 313T74 401T118 481T178 539T258 562Q324 562 364 519T404 386Q404 360 399 321T383 237T353 149T309 69T249 11T170 -12ZM175 74Q198 74 216 93T249 141T273 207T291 278T301 342T304 387Q304 430 293 453T254 476Q231 476 213 457T180 409T154 343T137 272T127 208T123 163Q123 120 135 97T175 74ZM286 606L214 750H299L346 606H286Z"  />
<glyph unicode="&#xF3;" horiz-adv-x="416" d="M170 -12Q103 -12 64 32T24 164Q24 190 29 229T45 313T74 401T118 481T178 539T258 562Q324 562 364 519T404 386Q404 360 399 321T383 237T353 149T309 69T249 11T170 -12ZM175 74Q198 74 216 93T249 141T273 207T291 278T301 342T304 387Q304 430 293 453T254 476Q231 476 213 457T180 409T154 343T137 272T127 208T123 163Q123 120 135 97T175 74ZM292 606H229L340 750H427L292 606Z"  />
<glyph unicode="&#xF4;" horiz-adv-x="416" d="M170 -12Q103 -12 64 32T24 164Q24 190 29 229T45 313T74 401T118 481T178 539T258 562Q324 562 364 519T404 386Q404 360 399 321T383 237T353 149T309 69T249 11T170 -12ZM175 74Q198 74 216 93T249 141T273 207T291 278T301 342T304 387Q304 430 293 453T254 476Q231 476 213 457T180 409T154 343T137 272T127 208T123 163Q123 120 135 97T175 74ZM345 606L309 704L235 606H179L275 750H362L397 606H345Z"  />
<glyph unicode="&#xF5;" horiz-adv-x="416" d="M170 -12Q103 -12 64 32T24 164Q24 190 29 229T45 313T74 401T118 481T178 539T258 562Q324 562 364 519T404 386Q404 360 399 321T383 237T353 149T309 69T249 11T170 -12ZM175 74Q198 74 216 93T249 141T273 207T291 278T301 342T304 387Q304 430 293 453T254 476Q231 476 213 457T180 409T154 343T137 272T127 208T123 163Q123 120 135 97T175 74ZM334 604Q311 604 303 617T290 645T282 674T262 687Q248 687 237 669T217 610H166Q179 667 203 705T268 744Q291 744 299 731T312 703T321 674T341 661Q355 661 366 679T386 738H438Q425 681 400 643T334 604Z"  />
<glyph unicode="&#xF6;" horiz-adv-x="416" d="M170 -12Q103 -12 64 32T24 164Q24 190 29 229T45 313T74 401T118 481T178 539T258 562Q324 562 364 519T404 386Q404 360 399 321T383 237T353 149T309 69T249 11T170 -12ZM175 74Q198 74 216 93T249 141T273 207T291 278T301 342T304 387Q304 430 293 453T254 476Q231 476 213 457T180 409T154 343T137 272T127 208T123 163Q123 120 135 97T175 74ZM430 670Q430 647 412 629T369 611Q349 611 335 624T321 659Q321 682 339 700T382 718Q402 718 416 705T430 670ZM277 670Q277 647 259 629T216 611Q196 611 182 624T168 659Q168 682 186 700T229 718Q249 718 263 705T277 670Z"  />
<glyph unicode="&#xF7;" horiz-adv-x="374" d="M43 306L56 368H372L359 306H43ZM171 141Q151 141 138 154T124 187Q124 210 140 226T180 243Q200 243 213 230T227 196Q227 173 211 157T171 141ZM235 429Q215 429 202 442T189 476Q189 499 205 515T245 531Q265 531 278 518T291 484Q291 461 275 445T235 429Z"  />
<glyph unicode="&#xF8;" horiz-adv-x="416" d="M170 -12Q102 -12 65 30L43 0H-15L39 73Q24 110 24 164Q24 190 29 229T45 313T74 401T118 481T178 539T258 562Q326 562 364 518L388 550H447L390 473Q404 436 404 386Q404 360 399 321T383 237T353 149T309 69T249 11T170 -12ZM254 476Q223 476 200 444T161 366T136 272T124 190L300 430Q291 476 254 476ZM175 74Q194 74 210 88T240 126T264 179T282 239T295 299T302 352L128 116Q139 74 175 74Z"  />
<glyph unicode="&#xF9;" horiz-adv-x="414" d="M173 -12Q102 -12 64 20T26 109Q26 126 28 142T33 167L117 550H215L128 160Q127 154 126 144T124 129Q124 97 139 86T177 74Q205 74 221 96T247 163L333 550H431L346 170Q326 82 287 35T173 -12ZM285 606L213 750H298L345 606H285Z"  />
<glyph unicode="&#xFA;" horiz-adv-x="414" d="M173 -12Q102 -12 64 20T26 109Q26 126 28 142T33 167L117 550H215L128 160Q127 154 126 144T124 129Q124 97 139 86T177 74Q205 74 221 96T247 163L333 550H431L346 170Q326 82 287 35T173 -12ZM291 606H228L339 750H426L291 606Z"  />
<glyph unicode="&#xFB;" horiz-adv-x="414" d="M173 -12Q102 -12 64 20T26 109Q26 126 28 142T33 167L117 550H215L128 160Q127 154 126 144T124 129Q124 97 139 86T177 74Q205 74 221 96T247 163L333 550H431L346 170Q326 82 287 35T173 -12ZM345 606L309 704L235 606H179L275 750H362L397 606H345Z"  />
<glyph unicode="&#xFC;" horiz-adv-x="414" d="M173 -12Q102 -12 64 20T26 109Q26 126 28 142T33 167L117 550H215L128 160Q127 154 126 144T124 129Q124 97 139 86T177 74Q205 74 221 96T247 163L333 550H431L346 170Q326 82 287 35T173 -12ZM430 670Q430 647 412 629T369 611Q349 611 335 624T321 659Q321 682 339 700T382 718Q402 718 416 705T430 670ZM277 670Q277 647 259 629T216 611Q196 611 182 624T168 659Q168 682 186 700T229 718Q249 718 263 705T277 670Z"  />
<glyph unicode="&#xFD;" horiz-adv-x="358" d="M76 0L126 230L65 550H167L196 328L323 550H427L224 230L174 0H76ZM262 606H199L310 750H397L262 606Z"  />
<glyph unicode="&#xFE;" horiz-adv-x="363" d="M-4 0L117 550H215L196 461H218Q358 461 358 326Q358 290 347 253T313 185T256 135T177 116H119L94 0H-4ZM178 201Q197 201 211 212T236 240T251 277T256 316Q256 376 201 376H176L138 201H164H178Z"  />
<glyph unicode="&#xFF;" horiz-adv-x="358" d="M76 0L126 230L65 550H167L196 328L323 550H427L224 230L174 0H76ZM402 670Q402 647 384 629T341 611Q321 611 307 624T293 659Q293 682 311 700T354 718Q374 718 388 705T402 670ZM249 670Q249 647 231 629T188 611Q168 611 154 624T140 659Q140 682 158 700T201 718Q221 718 235 705T249 670Z"  />
<glyph unicode="&#x152;" horiz-adv-x="616" d="M253 0L265 57Q251 36 237 23T208 2T181 -9T158 -12Q100 -12 67 41T33 190Q33 230 40 281T62 387T99 493T152 586T220 652T305 677Q317 677 329 674T353 663T374 642T388 610L400 667H673L653 575H485L443 386H605L584 294H422L378 92H546L526 0H253ZM360 482Q358 535 344 559T304 584Q277 584 255 563T214 507T182 429T159 342T145 257T140 187Q140 141 151 111T193 81Q219 81 246 108T294 185L360 482Z"  />
<glyph unicode="&#x153;" horiz-adv-x="549" d="M219 0L228 41Q209 12 186 0T140 -12Q111 -12 89 0T53 35T31 88T24 155Q24 189 29 232T46 320T76 409T119 486T175 541T247 562Q275 562 298 546T329 497L340 550H583L564 465H419L388 324H527L508 238H369L336 85H481L462 0H219ZM305 388Q303 476 254 476Q232 476 214 458T181 412T155 348T137 278T127 213T123 163Q123 121 134 98T175 74Q201 74 219 97T255 163L305 388Z"  />
<glyph unicode="&#x160;" horiz-adv-x="369" d="M271 728L236 872H288L323 774L398 872H454L358 728H271ZM140 -12Q89 -12 46 8T-20 61L42 138Q58 112 85 97T140 81Q157 81 173 88T202 110T222 144T230 190Q230 225 207 254T157 314T106 382T83 472Q83 515 98 552T140 618T201 662T276 678Q315 678 353 663T417 618L360 541Q345 561 323 573T275 585Q237 585 216 557T194 490Q194 458 216 430T266 369T315 298T338 207Q338 162 324 122T283 52T220 5T140 -12Z"  />
<glyph unicode="&#x161;" horiz-adv-x="335" d="M126 -12Q79 -12 41 3T-23 54L33 124Q66 74 121 74Q151 74 170 99T190 159Q190 189 171 211T129 258T87 313T68 389Q68 426 81 457T116 512T169 548T233 562Q271 562 304 549T362 508L308 437Q279 476 234 476Q208 476 190 454T171 400Q171 372 190 351T232 304T275 246T294 161Q294 129 282 98T247 43T193 3T126 -12ZM212 606L177 750H229L264 652L339 750H395L299 606H212Z"  />
<glyph unicode="&#x178;" horiz-adv-x="405" d="M454 783Q454 760 436 742T393 724Q373 724 359 737T345 772Q345 795 363 813T406 831Q426 831 440 818T454 783ZM301 783Q301 760 283 742T240 724Q220 724 206 737T192 772Q192 795 210 813T253 831Q273 831 287 818T301 783ZM97 0L158 279L90 667H197L228 382L386 667H501L262 279L201 0H97Z"  />
<glyph unicode="&#x17D;" horiz-adv-x="360" d="M246 728L211 872H263L298 774L373 872H429L333 728H246ZM-23 0L-4 89L273 575H104L124 667H416L397 582L117 92H296L276 0H-23Z"  />
<glyph unicode="&#x17E;" horiz-adv-x="309" d="M-29 0L-13 75L215 464H73L92 550H345L329 477L100 86H249L230 0H-29ZM190 606L155 750H207L242 652L317 750H373L277 606H190Z"  />
<glyph unicode="&#x192;" horiz-adv-x="348" d="M-28 -119L44 209H7V279H60L93 426Q111 502 147 531T231 561Q254 561 273 554T304 534L264 457Q256 469 240 469Q224 469 214 456T196 411L167 279H231V209H151L78 -119H-28Z"  />
<glyph unicode="&#x2C6;" horiz-adv-x="217" d="M235 556L199 654L125 556H69L165 700H252L287 556H235Z"  />
<glyph unicode="&#x2DC;" horiz-adv-x="243" d="M238 554Q215 554 207 567T194 595T186 624T166 637Q152 637 141 619T121 560H70Q83 617 107 655T172 694Q195 694 203 681T216 653T225 624T245 611Q259 611 270 629T290 688H342Q329 631 304 593T238 554Z"  />
<glyph unicode="&#x3BC;" horiz-adv-x="402" d="M-44 -184L103 483H197L117 126Q105 70 146 70Q170 70 194 91T234 139L311 483H405L298 0H204L217 60Q195 30 160 9T90 -12H86L49 -184H-44Z"  />
<glyph unicode="&#x2013;" horiz-adv-x="460" d="M20 201L38 283H438L420 201H20Z"  />
<glyph unicode="&#x2014;" horiz-adv-x="640" d="M20 201L38 283H618L600 201H20Z"  />
<glyph unicode="&#x2018;" horiz-adv-x="241" d="M109 502Q109 527 119 553T146 602T186 644T236 677L272 640Q245 626 219 604T183 556H192Q212 556 226 542T241 504Q241 475 220 455T171 435Q146 435 128 452T109 502Z"  />
<glyph unicode="&#x2019;" horiz-adv-x="241" d="M269 611Q269 585 259 560T232 511T191 468T142 435L106 472Q133 486 159 508T195 556H186Q166 556 152 570T137 608Q137 637 158 657T207 677Q232 677 250 660T269 611Z"  />
<glyph unicode="&#x201A;" horiz-adv-x="241" d="M145 52Q145 26 135 1T108 -48T67 -91T18 -124L-18 -86Q9 -73 35 -51T71 -2Q70 -3 67 -3T62 -3Q42 -3 28 11T13 49Q13 78 34 98T83 118Q108 118 126 101T145 52Z"  />
<glyph unicode="&#x201C;" horiz-adv-x="416" d="M285 502Q285 527 295 553T322 602T363 644T412 677L448 640Q421 626 395 604T359 556H368Q388 556 402 542T417 504Q417 475 396 455T347 435Q322 435 304 452T285 502ZM111 502Q111 527 121 553T148 602T188 644T238 677L273 640Q246 626 220 604T184 556H193Q213 556 228 542T243 504Q243 475 222 455T173 435Q148 435 130 452T111 502Z"  />
<glyph unicode="&#x201D;" horiz-adv-x="416" d="M269 611Q269 585 259 560T232 511T191 468T142 435L106 472Q133 486 159 508T195 556H186Q166 556 152 570T137 608Q137 637 158 657T207 677Q232 677 250 660T269 611ZM443 611Q443 585 433 560T406 511T365 468T316 435L281 472Q308 486 334 508T370 556H361Q341 556 326 570T311 608Q311 637 332 657T381 677Q406 677 424 660T443 611Z"  />
<glyph unicode="&#x201E;" horiz-adv-x="416" d="M145 52Q145 26 135 1T108 -48T67 -91T18 -124L-18 -86Q9 -73 35 -51T71 -2Q70 -3 67 -3T62 -3Q42 -3 28 11T13 49Q13 78 34 98T83 118Q108 118 126 101T145 52ZM319 52Q319 26 309 1T282 -48T241 -91T192 -124L157 -86Q184 -73 210 -51T246 -2Q244 -3 242 -3T237 -3Q217 -3 202 11T187 49Q187 78 208 98T257 118Q283 118 301 101T319 52Z"  />
<glyph unicode="&#x2020;" horiz-adv-x="268" d="M221 532L179 327H124L174 532L84 528L95 578L184 575L202 677H257L230 575L320 578L309 528L221 532Z"  />
<glyph unicode="&#x2021;" horiz-adv-x="268" d="M309 528L221 532L175 326L265 330L254 280L166 283L146 180H91L119 283L29 280L40 330L128 326L174 532L84 528L95 578L183 575L202 677H257L230 575L320 578L309 528Z"  />
<glyph unicode="&#x2022;" horiz-adv-x="358" d="M292 253Q292 228 282 206T254 168T215 141T167 131Q124 131 95 160T66 232Q66 257 76 279T103 317T143 344T191 354Q235 354 263 326T292 253Z"  />
<glyph unicode="&#x2026;" horiz-adv-x="717" d="M71 -11Q46 -11 30 6T13 48Q13 77 33 97T83 118Q108 118 125 101T142 59Q142 30 121 10T71 -11ZM310 -11Q285 -11 269 6T252 48Q252 77 272 97T322 118Q347 118 364 101T381 59Q381 30 360 10T310 -11ZM549 -11Q524 -11 508 6T491 48Q491 77 511 97T561 118Q586 118 603 101T620 59Q620 30 599 10T549 -11Z"  />
<glyph unicode="&#x2030;" horiz-adv-x="705" d="M274 456Q274 426 265 396T239 342T198 303T145 288Q101 288 77 315T53 393Q53 423 62 453T89 507T129 546T182 562Q227 562 250 534T274 456ZM81 0H35L403 550H449L81 0ZM215 457Q215 510 180 510Q166 510 154 500T132 473T118 435T113 393Q113 340 148 340Q162 340 174 350T196 377T210 415T215 457ZM432 158Q432 128 423 98T396 44T356 4T303 -11Q258 -11 235 17T211 94Q211 124 220 154T247 209T287 248T340 264Q385 264 408 236T432 158ZM372 159Q372 212 338 212Q323 212 311 202T290 175T276 137T271 94Q271 41 305 41Q320 41 332 51T353 78T367 116T372 159ZM665 158Q665 128 656 98T629 44T589 4T536 -11Q491 -11 468 17T444 94Q444 124 453 154T480 209T520 248T573 264Q618 264 641 236T665 158ZM605 159Q605 212 571 212Q556 212 544 202T523 175T509 137T504 94Q504 41 538 41Q553 41 565 51T586 78T600 116T605 159Z"  />
<glyph unicode="&#x2039;" horiz-adv-x="225" d="M79 63L29 243L159 420H236L103 239L152 63H79Z"  />
<glyph unicode="&#x203A;" horiz-adv-x="225" d="M146 420L196 240L66 63H-11L122 244L73 420H146Z"  />
<glyph unicode="&#x20AC;" horiz-adv-x="383" d="M156 308Q151 291 148 274T142 241H233L222 191H136Q135 183 135 177T135 166Q135 114 149 94T188 74Q212 74 228 92T260 145L333 111Q320 87 306 65T273 25T232 -2T179 -12Q148 -12 122 -2T77 29T47 83T36 164Q36 170 36 176T37 191H4L14 241H42Q44 257 47 274T56 308H29L40 358H70Q83 397 101 434T145 499T200 545T268 562Q331 562 362 526T399 427L315 408Q309 476 266 476Q234 476 211 441T170 358H259L248 308H156Z"  />
<glyph unicode="&#x2122;" horiz-adv-x="374" d="M356 447L396 629L301 447H293L278 629L238 447H210L258 667H301L311 510L389 667H432L384 447H356ZM175 641L132 447H104L147 641H105L110 667H222L217 641H175Z"  />


</font>
</defs>
</svg>
